{
    "asset" : {
        "generator" : "Khronos glTF Blender I/O v3.2.43",
        "version" : "2.0"
    },
    "scene" : 0,
    "scenes" : [
        {
            "name" : "Scene",
            "nodes" : [
                0
            ]
        }
    ],
    "nodes" : [
        {
            "mesh" : 0,
            "name" : "sun model",
            "translation" : [
                48.67063522338867,
                46.5802116394043,
                -11.340060234069824
            ]
        }
    ],
    "materials" : [
        {
            "doubleSided" : true,
            "name" : "Material.001",
            "pbrMetallicRoughness" : {
                "baseColorTexture" : {
                    "index" : 0
                },
                "metallicFactor" : 0,
                "roughnessFactor" : 0.5
            }
        }
    ],
    "meshes" : [
        {
            "name" : "sun model",
            "primitives" : [
                {
                    "attributes" : {
                        "POSITION" : 0,
                        "NORMAL" : 1,
                        "TEXCOORD_0" : 2
                    },
                    "indices" : 3,
                    "material" : 0
                }
            ]
        }
    ],
    "textures" : [
        {
            "sampler" : 0,
            "source" : 0
        }
    ],
    "images" : [
        {
            "mimeType" : "image/png",
            "name" : "2020_12_31__23_59_53_13__SDO_AIA_AIA_304_full_image_8",
            "uri" : "2020_12_31__23_59_53_13__SDO_AIA_AIA_304_full_image_8.png"
        }
    ],
    "accessors" : [
        {
            "bufferView" : 0,
            "componentType" : 5126,
            "count" : 5933,
            "max" : [
                50.57035446166992,
                50.00002670288086,
                11.340060234069824
            ],
            "min" : [
                -49.42963409423828,
                -50.0000114440918,
                -15.595806121826172
            ],
            "type" : "VEC3"
        },
        {
            "bufferView" : 1,
            "componentType" : 5126,
            "count" : 5933,
            "type" : "VEC3"
        },
        {
            "bufferView" : 2,
            "componentType" : 5126,
            "count" : 5933,
            "type" : "VEC2"
        },
        {
            "bufferView" : 3,
            "componentType" : 5123,
            "count" : 6024,
            "type" : "SCALAR"
        }
    ],
    "bufferViews" : [
        {
            "buffer" : 0,
            "byteLength" : 71196,
            "byteOffset" : 0
        },
        {
            "buffer" : 0,
            "byteLength" : 71196,
            "byteOffset" : 71196
        },
        {
            "buffer" : 0,
            "byteLength" : 47464,
            "byteOffset" : 142392
        },
        {
            "buffer" : 0,
            "byteLength" : 12048,
            "byteOffset" : 189856
        }
    ],
    "samplers" : [
        {
            "magFilter" : 9729,
            "minFilter" : 9987
        }
    ],
    "buffers" : [
        {
            "byteLength" : 201904,
            "uri" : "sun_model.bin"
        }
    ]
}
